# xmcd CD database file
#
# Track frame offsets:
#	150
#	26282
#	61899
#	98351
#	130667
#	154233
#	189335
#	205919
#	233946
#	258910
#
# Disc length: 3818 seconds
#
# Revision: 0
# Processed by: cddbd v1.5.2PL0 Copyright (c) Steve Scherf et al.
# Submitted via: CDex 1.70beta2
#
DISCID=750ee80a
DTITLE=Jim Beard - Revolutions
DYEAR=2008
DGENRE=Jazz
TTITLE0=Holiday for Pete and Gladys
TTITLE1=Hope
TTITLE2=Diana
TTITLE3=Lost at the Carnival
TTITLE4=Holodeck Waltz
TTITLE5=Princess
TTITLE6=In all her Finery
TTITLE7=Parsley Trees
TTITLE8=Trip
TTITLE9=Crossing Troll Bridge
EXTD=YEAR: 2008
EXTT0=
EXTT1=
EXTT2=
EXTT3=
EXTT4=
EXTT5=
EXTT6=
EXTT7=
EXTT8=
EXTT9=
PLAYORDER=
